<svg width="56" height="56" viewBox="0 0 56 56" fill="none" xmlns="http://www.w3.org/2000/svg">
<path d="M8.87097 36.0989L40.1598 4.81006C40.1683 4.80686 40.1771 4.80357 40.1863 4.80018C40.3193 4.75094 40.5217 4.68213 40.7818 4.61168C41.3036 4.47032 42.0474 4.32511 42.923 4.31304C44.6543 4.28916 46.923 4.78158 49.0708 6.92933C51.2185 9.07707 51.711 11.3458 51.6871 13.0771C51.675 13.9527 51.5298 14.6965 51.3884 15.2183C51.318 15.4784 51.2492 15.6808 51.1999 15.8138C51.1965 15.823 51.1932 15.8318 51.1901 15.8403L19.9012 47.1291L7.36684 48.6333L8.87097 36.0989Z" stroke="white" stroke-width="2" stroke-linecap="round"/>
<path d="M33.5864 9.96907L45.4383 21.8209" stroke="white" stroke-width="2"/>
</svg>
