<svg width="297" height="104" viewBox="0 0 297 104" fill="none" xmlns="http://www.w3.org/2000/svg">
<path d="M7.71775 13.6302C11.4279 13.6302 14.4355 10.6231 14.4355 6.91358C14.4355 3.20408 11.4279 0.19696 7.71775 0.19696C4.00762 0.19696 1 3.20408 1 6.91358C1 10.6231 4.00762 13.6302 7.71775 13.6302Z" fill="white"/>
<path d="M138.586 40V10.18H162.736V40H156.982V15.262H144.34V40H138.586ZM169.228 40V10.18H174.982V31.852L189.43 10.18H194.806V40H189.052V18.58L174.772 40H169.228ZM201.215 40V10.18H207.011V34.918H216.125V10.18H221.921V34.918H231.035V10.18H236.831V40H201.215ZM272.545 40L258.517 25.132C257.341 23.872 256.389 22.794 255.661 21.898C254.961 20.974 254.457 20.134 254.149 19.378C253.841 18.622 253.687 17.81 253.687 16.942C253.687 15.514 254.037 14.268 254.737 13.204C255.465 12.112 256.445 11.272 257.677 10.684C258.937 10.096 260.337 9.802 261.877 9.802C263.277 9.802 264.565 10.054 265.741 10.558C266.945 11.034 267.925 11.762 268.681 12.742C269.437 13.722 269.815 14.94 269.815 16.396C269.815 17.712 269.479 18.902 268.807 19.966C268.163 21.03 267.295 22.01 266.203 22.906C265.111 23.802 263.879 24.67 262.507 25.51C261.499 26.154 260.575 26.784 259.735 27.4C258.923 28.016 258.279 28.674 257.803 29.374C257.355 30.046 257.131 30.788 257.131 31.6C257.131 32.384 257.355 33.112 257.803 33.784C258.251 34.456 258.867 35.002 259.651 35.422C260.463 35.814 261.359 36.01 262.339 36.01C263.543 36.01 264.705 35.716 265.825 35.128C266.973 34.54 267.995 33.714 268.891 32.65C269.787 31.558 270.487 30.256 270.991 28.744C271.523 27.232 271.789 25.538 271.789 23.662H276.367C276.367 26.322 275.961 28.688 275.149 30.76C274.337 32.804 273.245 34.554 271.873 36.01C270.501 37.438 268.947 38.53 267.211 39.286C265.475 40.042 263.669 40.42 261.793 40.42C259.749 40.42 257.971 40.014 256.459 39.202C254.947 38.362 253.771 37.27 252.931 35.926C252.119 34.582 251.713 33.126 251.713 31.558C251.713 29.99 252.077 28.618 252.805 27.442C253.533 26.266 254.457 25.23 255.577 24.334C256.697 23.41 257.817 22.598 258.937 21.898C260.169 21.114 261.205 20.456 262.045 19.924C262.885 19.364 263.529 18.818 263.977 18.286C264.425 17.726 264.649 17.124 264.649 16.48C264.649 15.724 264.383 15.122 263.851 14.674C263.347 14.198 262.689 13.96 261.877 13.96C261.261 13.96 260.715 14.086 260.239 14.338C259.791 14.59 259.441 14.926 259.189 15.346C258.937 15.766 258.811 16.242 258.811 16.774C258.811 17.166 258.923 17.558 259.147 17.95C259.399 18.342 259.819 18.86 260.407 19.504C261.023 20.12 261.863 21.002 262.927 22.15L279.937 40H272.545ZM138.712 90V60.18H144.466V81.852L158.914 60.18H164.29V90H158.536V68.58L144.256 90H138.712ZM193.001 65.262H183.467V90H177.713V65.262H168.179V60.18H193.001V65.262ZM221.021 90V70.428L213.377 85.002H210.143L202.499 70.428V90H196.703V60.18H202.919L211.739 77.148L220.643 60.18H226.817V90H221.021ZM245.769 90.21C243.585 90.21 241.597 89.79 239.805 88.95C238.041 88.11 236.515 86.976 235.227 85.548C233.967 84.092 232.987 82.468 232.287 80.676C231.587 78.856 231.237 76.994 231.237 75.09C231.237 73.102 231.601 71.212 232.329 69.42C233.085 67.6 234.107 65.99 235.395 64.59C236.711 63.162 238.251 62.042 240.015 61.23C241.807 60.39 243.767 59.97 245.895 59.97C248.051 59.97 250.011 60.404 251.775 61.272C253.567 62.14 255.093 63.302 256.353 64.758C257.613 66.214 258.593 67.838 259.293 69.63C259.993 71.422 260.343 73.27 260.343 75.174C260.343 77.134 259.979 79.024 259.251 80.844C258.523 82.636 257.501 84.246 256.185 85.674C254.897 87.074 253.357 88.18 251.565 88.992C249.801 89.804 247.869 90.21 245.769 90.21ZM237.117 75.09C237.117 76.378 237.313 77.624 237.705 78.828C238.097 80.032 238.657 81.11 239.385 82.062C240.141 82.986 241.051 83.728 242.115 84.288C243.207 84.82 244.439 85.086 245.811 85.086C247.211 85.086 248.457 84.806 249.549 84.246C250.641 83.658 251.551 82.888 252.279 81.936C253.007 80.956 253.553 79.878 253.917 78.702C254.309 77.498 254.505 76.294 254.505 75.09C254.505 73.802 254.295 72.57 253.875 71.394C253.483 70.19 252.909 69.126 252.153 68.202C251.425 67.25 250.515 66.508 249.423 65.976C248.359 65.416 247.155 65.136 245.811 65.136C244.383 65.136 243.123 65.43 242.031 66.018C240.967 66.578 240.071 67.334 239.343 68.286C238.615 69.238 238.055 70.302 237.663 71.478C237.299 72.654 237.117 73.858 237.117 75.09Z" fill="white"/>
<path d="M29.7163 103.184C33.426 103.184 36.4336 100.177 36.4336 96.4674C36.4336 92.7583 33.426 89.7513 29.7163 89.7513C26.0059 89.7513 22.9983 92.7583 22.9983 96.4674C22.9983 100.177 26.0059 103.184 29.7163 103.184Z" fill="white" fill-opacity="0.4"/>
<path d="M52.1081 13.63C55.8185 13.63 58.8261 10.6229 58.8261 6.91336C58.8261 3.20386 55.8185 0.196747 52.1081 0.196747C48.3978 0.196747 45.3902 3.20386 45.3902 6.91336C45.3902 10.6229 48.3978 13.63 52.1081 13.63Z" fill="white" fill-opacity="0.4"/>
<path d="M52.1081 36.0181C55.8185 36.0181 58.8261 33.011 58.8261 29.3013C58.8261 25.592 55.8185 22.5848 52.1081 22.5848C48.3978 22.5848 45.3902 25.592 45.3902 29.3013C45.3902 33.011 48.3978 36.0181 52.1081 36.0181Z" fill="white" fill-opacity="0.4"/>
<path d="M52.1081 80.7961C55.8185 80.7961 58.8261 77.7891 58.8261 74.08C58.8261 70.3702 55.8185 67.3632 52.1081 67.3632C48.3978 67.3632 45.3902 70.3702 45.3902 74.08C45.3902 77.7891 48.3978 80.7961 52.1081 80.7961Z" fill="white" fill-opacity="0.4"/>
<path d="M52.1081 103.184C55.8185 103.184 58.8261 100.177 58.8261 96.4674C58.8261 92.7583 55.8185 89.7513 52.1081 89.7513C48.3978 89.7513 45.3902 92.7583 45.3902 96.4674C45.3902 100.177 48.3978 103.184 52.1081 103.184Z" fill="white" fill-opacity="0.4"/>
<path d="M74.5006 13.63C78.211 13.63 81.2186 10.6229 81.2186 6.91336C81.2186 3.20386 78.211 0.196747 74.5006 0.196747C70.7909 0.196747 67.7833 3.20386 67.7833 6.91336C67.7833 10.6229 70.7909 13.63 74.5006 13.63Z" fill="white" fill-opacity="0.4"/>
<path d="M7.32358 36.0181C11.0337 36.0181 14.0413 33.011 14.0413 29.3013C14.0413 25.592 11.0337 22.5848 7.32358 22.5848C3.61346 22.5848 0.605835 25.592 0.605835 29.3013C0.605835 33.011 3.61346 36.0181 7.32358 36.0181Z" fill="white"/>
<path d="M7.32358 58.4074C11.0337 58.4074 14.0413 55.4003 14.0413 51.6906C14.0413 47.9815 11.0337 44.9744 7.32358 44.9744C3.61346 44.9744 0.605835 47.9815 0.605835 51.6906C0.605835 55.4003 3.61346 58.4074 7.32358 58.4074Z" fill="white"/>
<path d="M7.32358 80.7961C11.0337 80.7961 14.0413 77.7891 14.0413 74.08C14.0413 70.3702 11.0337 67.3632 7.32358 67.3632C3.61346 67.3632 0.605835 70.3702 0.605835 74.08C0.605835 77.7891 3.61346 80.7961 7.32358 80.7961Z" fill="white"/>
<path d="M7.32358 103.184C11.0337 103.184 14.0413 100.177 14.0413 96.4674C14.0413 92.7583 11.0337 89.7513 7.32358 89.7513C3.61346 89.7513 0.605835 92.7583 0.605835 96.4674C0.605835 100.177 3.61346 103.184 7.32358 103.184Z" fill="white"/>
<path d="M29.7163 13.63C33.4267 13.63 36.4342 10.6229 36.4342 6.91342C36.4342 3.20392 33.4267 0.196808 29.7163 0.196808C26.0062 0.196808 22.9986 3.20392 22.9986 6.91342C22.9986 10.6229 26.0062 13.63 29.7163 13.63Z" fill="white"/>
<path d="M30.4985 37.5822C34.6408 37.5822 37.9986 34.225 37.9986 30.0833C37.9986 25.9422 34.6408 22.5848 30.4985 22.5848C26.3564 22.5848 22.9986 25.9422 22.9986 30.0833C22.9986 34.225 26.3564 37.5822 30.4985 37.5822Z" fill="#EC1946"/>
<path d="M29.7163 58.4074C33.4267 58.4074 36.4342 55.4003 36.4342 51.6906C36.4342 47.9815 33.4267 44.9744 29.7163 44.9744C26.0062 44.9744 22.9986 47.9815 22.9986 51.6906C22.9986 55.4003 26.0062 58.4074 29.7163 58.4074Z" fill="white"/>
<path d="M29.7163 80.7961C33.4267 80.7961 36.4342 77.7891 36.4342 74.08C36.4342 70.3702 33.4267 67.3632 29.7163 67.3632C26.0062 67.3632 22.9986 70.3702 22.9986 74.08C22.9986 77.7891 26.0062 80.7961 29.7163 80.7961Z" fill="white"/>
<path d="M52.1081 58.4074C55.8185 58.4074 58.8261 55.4003 58.8261 51.6906C58.8261 47.9815 55.8185 44.9744 52.1081 44.9744C48.3984 44.9744 45.3908 47.9815 45.3908 51.6906C45.3908 55.4003 48.3984 58.4074 52.1081 58.4074Z" fill="white"/>
<path d="M74.5013 36.0181C78.211 36.0181 81.2192 33.011 81.2192 29.3013C81.2192 25.592 78.211 22.5848 74.5013 22.5848C70.7909 22.5848 67.7833 25.592 67.7833 29.3013C67.7833 33.011 70.7909 36.0181 74.5013 36.0181Z" fill="white"/>
<path d="M74.5013 58.4074C78.211 58.4074 81.2192 55.4003 81.2192 51.6906C81.2192 47.9815 78.211 44.9744 74.5013 44.9744C70.7909 44.9744 67.7833 47.9815 67.7833 51.6906C67.7833 55.4003 70.7909 58.4074 74.5013 58.4074Z" fill="white"/>
<path d="M74.5013 80.7961C78.211 80.7961 81.2192 77.7891 81.2192 74.08C81.2192 70.3702 78.211 67.3632 74.5013 67.3632C70.7909 67.3632 67.7833 70.3702 67.7833 74.08C67.7833 77.7891 70.7909 80.7961 74.5013 80.7961Z" fill="white"/>
<path d="M74.5013 103.184C78.211 103.184 81.2192 100.177 81.2192 96.4674C81.2192 92.7583 78.211 89.7513 74.5013 89.7513C70.7909 89.7513 67.7833 92.7583 67.7833 96.4674C67.7833 100.177 70.7909 103.184 74.5013 103.184Z" fill="white"/>
<path d="M96.8938 13.63C100.604 13.63 103.612 10.6229 103.612 6.91342C103.612 3.20392 100.604 0.196808 96.8938 0.196808C93.184 0.196808 90.1758 3.20392 90.1758 6.91342C90.1758 10.6229 93.184 13.63 96.8938 13.63Z" fill="white"/>
<path d="M96.8938 36.0181C100.604 36.0181 103.612 33.011 103.612 29.3013C103.612 25.592 100.604 22.5848 96.8938 22.5848C93.184 22.5848 90.1758 25.592 90.1758 29.3013C90.1758 33.011 93.184 36.0181 96.8938 36.0181Z" fill="white"/>
<path d="M96.8938 58.4074C100.604 58.4074 103.612 55.4003 103.612 51.6906C103.612 47.9815 100.604 44.9744 96.8938 44.9744C93.184 44.9744 90.1758 47.9815 90.1758 51.6906C90.1758 55.4003 93.184 58.4074 96.8938 58.4074Z" fill="white"/>
<path d="M97.2879 80.7961C100.998 80.7961 104.006 77.7891 104.006 74.08C104.006 70.3702 100.998 67.3632 97.2879 67.3632C93.5782 67.3632 90.57 70.3702 90.57 74.08C90.57 77.7891 93.5782 80.7961 97.2879 80.7961Z" fill="white"/>
<path d="M96.8938 103.184C100.604 103.184 103.612 100.177 103.612 96.4674C103.612 92.7583 100.604 89.7513 96.8938 89.7513C93.184 89.7513 90.1758 92.7583 90.1758 96.4674C90.1758 100.177 93.184 103.184 96.8938 103.184Z" fill="white"/>
</svg>
